<?xml version="1.0" encoding="iso-8859-1"?>
<!-- Generator: Adobe Illustrator 19.0.0, SVG Export Plug-In . SVG Version: 6.00 Build 0)  -->
<svg version="1.1" id="Capa_1" xmlns="http://www.w3.org/2000/svg" xmlns:xlink="http://www.w3.org/1999/xlink" x="0px" y="0px"
	 viewBox="0 0 416 416" style="enable-background:new 0 0 416 416;" xml:space="preserve">
<g>
	<g>
		<path d="M89.704,99.984l13.824-26.976h-15.32l-3.168,8.824c-1,2.504-2.168,5.504-3.328,9h-0.336c-1.504-3.504-2.664-6.504-3.832-9
			l-3.664-8.824H57.896L71.72,99.312l-14.656,27.816h15.312l4-9.656c1.168-2.832,2.328-5.672,3.496-9h0.336
			c1.328,3.328,2.496,6.168,3.832,9l4.328,9.656h15.984L89.704,99.984z"/>
	</g>
</g>
<g>
	<g>
		<path d="M127.12,73.008h-15.984v54.12h16.824c15.648,0,26.968-8.168,26.968-27.312C154.928,80.672,143.608,73.008,127.12,73.008z
			 M126.296,115.632h-0.832V84.496h0.832c7.832,0,13.992,2.656,13.992,15.312S134.12,115.632,126.296,115.632z"/>
	</g>
</g>
<g>
	<g>
		<rect x="32" y="112" width="16" height="16"/>
	</g>
</g>
<g>
	<g>
		<path d="M413.656,82.344l-80-80C332.16,0.84,330.128,0,328,0h-8H120C97.944,0,80,17.944,80,40H40C17.944,40,0,57.944,0,80v40
			c0,22.056,17.944,40,40,40h40v184c0,22.056,17.944,40,40,40h24c4.424,0,8-3.576,8-8s-3.576-8-8-8h-24c-13.232,0-24-10.768-24-24
			V160h152c22.056,0,40-17.944,40-40V80c0-22.056-17.944-40-40-40H96c0-13.232,10.768-24,24-24h192v48c0,22.056,17.944,40,40,40h48
			v240c0,13.232-10.768,24-24,24h-24c-4.424,0-8,3.576-8,8s3.576,8,8,8h24c22.056,0,40-17.944,40-40V96v-8
			C416,85.872,415.16,83.84,413.656,82.344z M248,56c13.232,0,24,10.768,24,24v40c0,13.232-10.768,24-24,24H40
			c-13.232,0-24-10.768-24-24V80c0-13.232,10.768-24,24-24H248z M352,88c-13.232,0-24-10.768-24-24V19.312L396.688,88H352z"/>
	</g>
</g>
<g>
	<g>
		<path d="M296,256h-96c-22.056,0-40,17.944-40,40v80c0,22.056,17.944,40,40,40h96c22.056,0,40-17.944,40-40v-80
			C336,273.944,318.056,256,296,256z M320,376c0,13.232-10.768,24-24,24h-96c-13.232,0-24-10.768-24-24v-80
			c0-13.232,10.768-24,24-24h96c13.232,0,24,10.768,24,24V376z"/>
	</g>
</g>
<g>
	<g>
		<polygon points="248,295.936 202.216,376.064 262.128,376.064 252.568,360.128 248,360.12 229.784,360.064 248,328.184 
			272,370.184 275.576,376.064 293.784,376.064 		"/>
	</g>
</g>
<g>
</g>
<g>
</g>
<g>
</g>
<g>
</g>
<g>
</g>
<g>
</g>
<g>
</g>
<g>
</g>
<g>
</g>
<g>
</g>
<g>
</g>
<g>
</g>
<g>
</g>
<g>
</g>
<g>
</g>
</svg>
